<svg xmlns="http://www.w3.org/2000/svg" width="300" height="300" viewBox="0 0 300 300">
  <rect x="0" y="0" width="300" height="300" fill="#00599C"/>
  <path d="M151.1,20.2c-59.1,0-107,47.9-107,107s47.9,107,107,107s107-47.9,107-107S210.2,20.2,151.1,20.2z M151.1,213.5c-41.9,0-76-34.1-76-76c0-41.9,34.1-76,76-76s76,34.1,76,76C227.1,179.4,193,213.5,151.1,213.5z"/>
  <path fill="#FFFFFF" d="M118.5,89.5c-2.8,0-5.1,2.3-5.1,5.1v23.6H93.6c-2.8,0-5.1,2.3-5.1,5.1v14.2c0,2.8,2.3,5.1,5.1,5.1h19.8v23.6c0,2.8,2.3,5.1,5.1,5.1h14.2c2.8,0,5.1-2.3,5.1-5.1V128h19.8c2.8,0,5.1-2.3,5.1-5.1v-14.2c0-2.8-2.3-5.1-5.1-5.1H143V94.5c0-2.8-2.3-5.1-5.1-5.1H118.5z"/>
  <path fill="#FFFFFF" d="M175.1,94.5c-2.8,0-5.1,2.3-5.1,5.1v66.8c0,2.8,2.3,5.1,5.1,5.1h19.8c2.8,0,5.1-2.3,5.1-5.1v-66.8c0-2.8-2.3-5.1-5.1-5.1H175.1z"/>
  <path fill="#FFFFFF" d="M72.3,72.3v155.3h155.3V72.3H72.3z M193.9,193.9H106.1v-14.2h87.8V193.9z M193.9,161.5H106.1v-14.2h87.8V161.5z M193.9,129.1H106.1v-14.2h87.8V129.1z"/>
</svg>
