<svg xmlns="http://www.w3.org/2000/svg" viewBox="0 0 1024 1024">
  <rect fill="#217346" width="1024" height="1024"/>
  <path fill="#F2F2F2" d="M256 352h-96v-64h96v64zm-96 192h96v288h-96v-288zm224-192h-96v-64h96v64zm-96 256h96v32h-96v-32zm224-32v32h-96v-32h96zm-96-192h96v256h-96v-256zm224 0h96v288h-96v-288zm-352 0h96v256h-96v-256zm352 0h96v256h-96v-256zm-352 320h96v64h-96v-64zm352 0h96v64h-96v-64zm-352 128h96v32h-96v-32zm352 0h96v32h-96v-32zm-128-192h96v256h-96v-256zm256 0h96v256h-96v-256z"/>
</svg>
